<svg xmlns="http://www.w3.org/2000/svg" width="98" height="96" viewBox="0 0 98 96" role="img" aria-label="GitHub">
  <path fill="#F5F7FA" d="M48.9 0C21.9 0 0 22 0 49.2c0 21.7 14 40.1 33.5 46.6 2.5.5 3.4-1.1 3.4-2.4 0-1.2 0-4.3-.1-8.4-13.6 3-16.5-6.6-16.5-6.6-2.3-5.9-5.7-7.5-5.7-7.5-4.7-3.2.4-3.1.4-3.1 5.2.4 7.9 5.4 7.9 5.4 4.6 8 12.1 5.7 15 4.3.5-3.3 1.8-5.7 3.2-7-10.9-1.2-22.3-5.5-22.3-24.6 0-5.4 1.9-9.8 5.1-13.3-.5-1.2-2.2-6.1.5-12.6 0 0 4.1-1.3 13.5 5.1 3.9-1.1 8.1-1.6 12.2-1.6s8.3.5 12.2 1.6c9.4-6.4 13.5-5.1 13.5-5.1 2.7 6.5 1 11.4.5 12.6 3.2 3.5 5.1 7.9 5.1 13.3 0 19.2-11.5 23.4-22.5 24.6 1.8 1.6 3.4 4.7 3.4 9.5 0 6.8-.1 12.2-.1 13.8 0 1.3.9 2.9 3.4 2.4C83.9 89.3 98 70.9 98 49.2 98 22 76 0 48.9 0z"></path>
</svg>
