<svg xmlns="http://www.w3.org/2000/svg" role="img" aria-label="LinkedIn" viewBox="0 0 24 24">
  <path fill="#0A66C2" d="M22.23 0H1.77C.79 0 0 .78 0 1.74v20.52C0 23.22.79 24 1.77 24h20.46c.98 0 1.77-.78 1.77-1.74V1.74C24 .78 23.21 0 22.23 0z"></path>
  <path fill="#FFF" d="M3.54 9H6.9v12.09H3.54V9zM5.22 2.91c1.08 0 1.95.87 1.95 1.94 0 1.07-.87 1.94-1.95 1.94s-1.95-.87-1.95-1.94c0-1.07.87-1.94 1.95-1.94zM9.34 9h3.22v1.65h.05c.45-.86 1.54-1.76 3.18-1.76 3.4 0 4.03 2.24 4.03 5.15v7.05h-3.36v-6.26c0-1.49-.03-3.41-2.08-3.41-2.09 0-2.41 1.63-2.41 3.31v6.36H9.34V9z"></path>
</svg>
